<?xml version="1.0" encoding="UTF-8" standalone="no"?>
<svg
   xmlns:dc="http://purl.org/dc/elements/1.1/"
   xmlns:cc="http://creativecommons.org/ns#"
   xmlns:rdf="http://www.w3.org/1999/02/22-rdf-syntax-ns#"
   xmlns:svg="http://www.w3.org/2000/svg"
   xmlns="http://www.w3.org/2000/svg"
   xmlns:sodipodi="http://sodipodi.sourceforge.net/DTD/sodipodi-0.dtd"
   xmlns:inkscape="http://www.inkscape.org/namespaces/inkscape"
   width="79.903"
   height="36"
   viewBox="0 0 79.902998 35.999999"
   version="1.1"
   id="svg28"
   sodipodi:docname="logo-inverse.svg"
   inkscape:export-filename="/home/filosof/fiork/logo.png"
   inkscape:export-xdpi="96"
   inkscape:export-ydpi="96"
   inkscape:version="0.92.3 (2405546, 2018-03-11)">
  <metadata
     id="metadata32">
    <rdf:RDF>
      <cc:Work
         rdf:about="">
        <dc:format>image/svg+xml</dc:format>
        <dc:type
           rdf:resource="http://purl.org/dc/dcmitype/StillImage" />
        <dc:title>miele_logo_red</dc:title>
      </cc:Work>
    </rdf:RDF>
  </metadata>
  <sodipodi:namedview
     pagecolor="#ffffff"
     bordercolor="#666666"
     borderopacity="1"
     objecttolerance="10"
     gridtolerance="10"
     guidetolerance="10"
     inkscape:pageopacity="0"
     inkscape:pageshadow="2"
     inkscape:window-width="1366"
     inkscape:window-height="715"
     id="namedview30"
     showgrid="false"
     inkscape:zoom="4.5976644"
     inkscape:cx="55.86739"
     inkscape:cy="19.994385"
     inkscape:window-x="-8"
     inkscape:window-y="22"
     inkscape:window-maximized="1"
     inkscape:current-layer="svg28" />
  <!-- Generator: Sketch 47 (45396) - http://www.bohemiancoding.com/sketch -->
  <title
     id="title2">miele_logo_red</title>
  <desc
     id="desc4">Created with Sketch.</desc>
  <defs
     id="defs6" />
  <path
     style="opacity:0.4;fill:#e3eded;fill-opacity:1;stroke-width:1.72495115;stroke-miterlimit:4;stroke-dasharray:none"
     d="M 0 0 L 0 36 L 79.902344 36 L 79.902344 0 L 0 0 z M 2.4902344 3.0292969 L 10.658203 3.0292969 L 14.574219 7.1738281 L 18.208984 3.0292969 L 26.328125 3.0292969 L 26.328125 5.3359375 L 24.701172 5.3359375 L 24.701172 11.298828 L 26.328125 11.298828 L 26.328125 13.603516 L 15.777344 13.603516 L 15.777344 11.298828 L 17.40625 11.298828 L 17.40625 7.5859375 L 12.189453 13.603516 L 6.6933594 7.5859375 L 6.6933594 11.298828 L 8.3222656 11.298828 L 8.3222656 13.603516 L 2.4902344 13.603516 L 2.4902344 11.298828 L 4.0976562 11.298828 L 4.0976562 5.3359375 L 2.4902344 5.3359375 L 2.4902344 3.0292969 z M 30.929688 4.9550781 L 32.361328 4.9550781 C 32.572478 4.9550781 32.725454 5.0303816 32.818359 5.1816406 L 34.996094 8.359375 L 37.1875 5.1816406 C 37.280406 5.0303816 37.433381 4.9550781 37.644531 4.9550781 L 39.076172 4.9550781 C 39.169077 4.9550781 39.245565 4.982106 39.304688 5.0371094 C 39.372252 5.0852374 39.40625 5.147027 39.40625 5.2226562 L 39.40625 11.916016 C 39.40625 11.991645 39.372252 12.053439 39.304688 12.101562 C 39.245567 12.149693 39.16908 12.173828 39.076172 12.173828 L 37.466797 12.173828 C 37.382336 12.173828 37.305849 12.14969 37.238281 12.101562 C 37.179161 12.046565 37.150391 11.984774 37.150391 11.916016 L 37.150391 8.1621094 L 35.78125 10.205078 C 35.671452 10.363213 35.523703 10.441406 35.337891 10.441406 L 34.654297 10.441406 C 34.485376 10.441406 34.337626 10.363213 34.210938 10.205078 L 32.855469 8.1621094 L 32.855469 11.916016 C 32.855469 11.991645 32.821472 12.053439 32.753906 12.101562 C 32.694786 12.149693 32.618299 12.173828 32.525391 12.173828 L 30.929688 12.173828 C 30.836782 12.173828 30.757021 12.14969 30.689453 12.101562 C 30.630333 12.053439 30.599609 11.991646 30.599609 11.916016 L 30.599609 5.2226562 C 30.599609 5.1470268 30.630333 5.0852373 30.689453 5.0371094 C 30.757018 4.982106 30.836776 4.9550781 30.929688 4.9550781 z M 41.445312 4.9550781 L 43.169922 4.9550781 C 43.262827 4.9550781 43.337362 4.982106 43.396484 5.0371094 C 43.464049 5.0852374 43.498047 5.1470268 43.498047 5.2226562 L 43.498047 9.2558594 L 46.994141 5.1503906 C 47.095493 5.0197578 47.239969 4.9550781 47.425781 4.9550781 L 48.984375 4.9550781 C 49.07728 4.9550781 49.153769 4.982106 49.212891 5.0371094 C 49.272011 5.0852374 49.300781 5.1470268 49.300781 5.2226562 L 49.300781 11.916016 C 49.300781 11.98477 49.272011 12.046563 49.212891 12.101562 C 49.153771 12.149693 49.077282 12.173828 48.984375 12.173828 L 47.248047 12.173828 C 47.155142 12.173828 47.075384 12.14969 47.007812 12.101562 C 46.948692 12.053439 46.919922 11.991647 46.919922 11.916016 L 46.919922 8.0390625 L 43.421875 11.978516 C 43.371202 12.040396 43.311711 12.08867 43.244141 12.123047 C 43.185021 12.15742 43.101986 12.173828 42.992188 12.173828 L 41.433594 12.173828 C 41.340687 12.173828 41.264199 12.14969 41.205078 12.101562 C 41.145958 12.046565 41.117188 11.981883 41.117188 11.90625 L 41.117188 5.2226562 C 41.117188 5.1470268 41.145958 5.0852373 41.205078 5.0371094 C 41.272643 4.982106 41.352404 4.9550781 41.445312 4.9550781 z M 51.330078 4.9550781 L 57.310547 4.9550781 C 57.403453 4.9550781 57.479944 4.982106 57.539062 5.0371094 C 57.606628 5.0852374 57.640625 5.1470268 57.640625 5.2226562 L 57.640625 6.2441406 C 57.640625 6.3197701 57.606628 6.3815596 57.539062 6.4296875 C 57.479943 6.4778155 57.403454 6.5019531 57.310547 6.5019531 L 53.306641 6.5019531 L 53.306641 7.8125 L 57.03125 7.8125 C 57.124157 7.8125 57.200644 7.839528 57.259766 7.8945312 C 57.32733 7.9426593 57.361328 8.0044487 57.361328 8.0800781 L 57.361328 9.0195312 C 57.361328 9.095161 57.32733 9.1598406 57.259766 9.2148438 C 57.200646 9.2629689 57.124159 9.2871094 57.03125 9.2871094 L 53.306641 9.2871094 L 53.306641 10.626953 L 57.412109 10.626953 C 57.505015 10.626953 57.581504 10.655935 57.640625 10.710938 C 57.708198 10.759061 57.742186 10.820853 57.742188 10.896484 L 57.742188 11.916016 C 57.742188 11.991645 57.708198 12.053437 57.640625 12.101562 C 57.581505 12.149692 57.505017 12.173828 57.412109 12.173828 L 51.330078 12.173828 C 51.245618 12.173828 51.171084 12.14969 51.103516 12.101562 C 51.044396 12.046565 51.013672 11.984773 51.013672 11.916016 L 51.013672 5.2226562 C 51.013672 5.1470268 51.044396 5.0852373 51.103516 5.0371094 C 51.162636 4.982106 51.23717 4.9550781 51.330078 4.9550781 z M 60.548828 4.9550781 L 66.845703 4.9550781 C 66.938609 4.9550781 67.013143 4.982106 67.072266 5.0371094 C 67.13983 5.0852374 67.173828 5.1470268 67.173828 5.2226562 L 67.173828 11.916016 C 67.173828 11.991646 67.13983 12.053435 67.072266 12.101562 C 67.013146 12.149691 66.938612 12.173828 66.845703 12.173828 L 65.109375 12.173828 C 65.024915 12.173828 64.948428 12.14969 64.880859 12.101562 C 64.821739 12.046565 64.792969 11.984773 64.792969 11.916016 L 64.792969 6.6777344 L 62.511719 6.6777344 L 62.511719 7.5449219 C 62.511719 8.7137418 62.420186 9.6212894 62.234375 10.267578 C 62.048562 10.913867 61.702072 11.389826 61.195312 11.699219 C 60.696998 12.001737 59.96675 12.160077 59.003906 12.173828 C 58.919447 12.173828 58.842959 12.146797 58.775391 12.091797 C 58.707825 12.036797 58.673828 11.975007 58.673828 11.90625 L 58.673828 10.761719 C 58.673828 10.617335 58.779084 10.528518 58.990234 10.494141 C 59.437872 10.432261 59.755594 10.129093 59.941406 9.5859375 C 60.127218 9.0427798 60.21875 8.2800588 60.21875 7.296875 L 60.21875 5.2128906 C 60.21875 5.1372611 60.249474 5.0754715 60.308594 5.0273438 C 60.376166 4.9792157 60.455926 4.9550781 60.548828 4.9550781 z M 69.220703 4.9550781 L 75.201172 4.9550781 C 75.294079 4.9550781 75.370566 4.982106 75.429688 5.0371094 C 75.497252 5.0852374 75.529297 5.1470268 75.529297 5.2226562 L 75.529297 6.2441406 C 75.529297 6.3197701 75.497252 6.3815596 75.429688 6.4296875 C 75.370568 6.4778155 75.294081 6.5019531 75.201172 6.5019531 L 71.197266 6.5019531 L 71.197266 7.8125 L 74.921875 7.8125 C 75.014781 7.8125 75.091269 7.839528 75.150391 7.8945312 C 75.217963 7.9426593 75.251953 8.0044487 75.251953 8.0800781 L 75.251953 9.0195312 C 75.251953 9.095161 75.217963 9.1598406 75.150391 9.2148438 C 75.091271 9.262969 75.014782 9.2871094 74.921875 9.2871094 L 71.197266 9.2871094 L 71.197266 10.626953 L 75.302734 10.626953 C 75.39564 10.626953 75.470174 10.655937 75.529297 10.710938 C 75.596862 10.759063 75.630859 10.820853 75.630859 10.896484 L 75.630859 11.916016 C 75.630859 11.991645 75.596862 12.053435 75.529297 12.101562 C 75.470177 12.14969 75.395642 12.173828 75.302734 12.173828 L 69.220703 12.173828 C 69.136242 12.173828 69.059754 12.14969 68.992188 12.101562 C 68.933066 12.046564 68.904297 11.984773 68.904297 11.916016 L 68.904297 5.2226562 C 68.904297 5.1470268 68.933067 5.0852373 68.992188 5.0371094 C 69.051308 4.982106 69.127795 4.9550781 69.220703 4.9550781 z M 2.4902344 16.859375 L 77.412109 16.859375 L 77.412109 33.390625 L 2.4902344 33.390625 L 2.4902344 16.859375 z M 10.900391 20.513672 C 10.018123 20.513672 9.2405631 20.628795 8.5683594 20.859375 C 7.9066586 21.089955 7.3930021 21.413571 7.0253906 21.832031 C 6.6682824 22.241951 6.4882812 22.712706 6.4882812 23.242188 C 6.4882812 24.019328 6.8034026 24.616696 7.4335938 25.035156 C 8.0637846 25.453616 9.0162262 25.765743 10.287109 25.970703 C 10.938307 26.081724 11.436598 26.183404 11.783203 26.277344 C 12.129808 26.362744 12.381515 26.466385 12.539062 26.585938 C 12.696613 26.696957 12.775391 26.842145 12.775391 27.021484 C 12.775391 27.269144 12.622951 27.464195 12.318359 27.609375 C 12.013767 27.746015 11.57889 27.814453 11.011719 27.814453 C 10.528572 27.814453 10.139792 27.751146 9.8457031 27.623047 C 9.5621171 27.486406 9.3513851 27.316288 9.2148438 27.111328 C 9.1203145 27.025928 9.0312911 26.965801 8.9472656 26.931641 C 8.8737433 26.897487 8.7744757 26.878906 8.6484375 26.878906 L 6.5527344 26.878906 C 6.4582056 26.878906 6.3743039 26.905791 6.3007812 26.957031 C 6.2377619 27.008271 6.2050781 27.071577 6.2050781 27.148438 C 6.2260845 27.609597 6.421451 28.036846 6.7890625 28.429688 C 7.156674 28.822527 7.6978928 29.137833 8.4121094 29.376953 C 9.1263259 29.616074 9.992909 29.736328 11.011719 29.736328 C 11.946502 29.736328 12.77528 29.626338 13.5 29.404297 C 14.22472 29.173717 14.791548 28.844968 15.201172 28.417969 C 15.610796 27.990968 15.816406 27.48697 15.816406 26.90625 C 15.816406 26.37677 15.674211 25.941209 15.390625 25.599609 C 15.117542 25.249469 14.687788 24.967406 14.099609 24.753906 C 13.521934 24.531866 12.739252 24.348305 11.751953 24.203125 C 10.890692 24.057945 10.301424 23.915937 9.9863281 23.779297 C 9.6712325 23.634117 9.5136719 23.439066 9.5136719 23.191406 C 9.5136719 22.943746 9.6353799 22.755053 9.8769531 22.626953 C 10.118526 22.498853 10.459257 22.435547 10.900391 22.435547 C 11.289008 22.435547 11.614374 22.498853 11.876953 22.626953 C 12.139532 22.746513 12.302214 22.896832 12.365234 23.076172 C 12.491272 23.229892 12.671274 23.306641 12.902344 23.306641 L 15.107422 23.306641 C 15.201949 23.306641 15.28073 23.279756 15.34375 23.228516 C 15.40677 23.168736 15.4375 23.100298 15.4375 23.023438 C 15.416494 22.647677 15.223081 22.269066 14.855469 21.884766 C 14.498361 21.491926 13.977629 21.166356 13.294922 20.910156 C 12.622717 20.645416 11.824671 20.513672 10.900391 20.513672 z M 58.792969 20.513672 C 57.312019 20.513672 56.135436 20.815535 55.263672 21.421875 C 54.402409 22.019675 53.945091 22.874175 53.892578 23.984375 C 53.882071 24.223495 53.876953 24.609192 53.876953 25.138672 C 53.876953 25.659613 53.882071 26.035045 53.892578 26.265625 C 53.945093 27.401444 54.397288 28.264255 55.248047 28.853516 C 56.109307 29.442776 57.291013 29.736328 58.792969 29.736328 C 59.727752 29.736328 60.561652 29.612895 61.296875 29.365234 C 62.042601 29.117575 62.631869 28.758762 63.0625 28.289062 C 63.493131 27.819363 63.717275 27.263547 63.738281 26.623047 C 63.738281 26.546187 63.702426 26.482881 63.628906 26.431641 C 63.565888 26.380401 63.487107 26.355469 63.392578 26.355469 L 61.15625 26.355469 C 61.009203 26.355469 60.897738 26.380401 60.824219 26.431641 C 60.750697 26.474341 60.692404 26.5594 60.650391 26.6875 C 60.513849 27.09742 60.289705 27.387794 59.974609 27.558594 C 59.670017 27.729394 59.276115 27.814453 58.792969 27.814453 C 57.606109 27.814453 56.991232 27.277212 56.949219 26.201172 C 56.938712 25.953512 56.933594 25.589568 56.933594 25.111328 C 56.933594 24.633088 56.938712 24.279408 56.949219 24.048828 C 56.991231 22.972788 57.606109 22.435547 58.792969 22.435547 C 59.286619 22.435547 59.68052 22.520607 59.974609 22.691406 C 60.279201 22.853667 60.503346 23.14404 60.650391 23.5625 C 60.702906 23.6906 60.761199 23.780791 60.824219 23.832031 C 60.897741 23.874731 61.009205 23.894531 61.15625 23.894531 L 63.392578 23.894531 C 63.487105 23.894531 63.565886 23.869599 63.628906 23.818359 C 63.702426 23.767119 63.738281 23.703812 63.738281 23.626953 C 63.717275 22.986452 63.493131 22.430637 63.0625 21.960938 C 62.631869 21.491238 62.042601 21.132426 61.296875 20.884766 C 60.561652 20.637106 59.727752 20.513672 58.792969 20.513672 z M 17.722656 20.640625 C 17.607118 20.640625 17.512972 20.675821 17.439453 20.744141 C 17.365934 20.803921 17.328125 20.880669 17.328125 20.974609 L 17.328125 29.289062 C 17.328125 29.374462 17.365934 29.451211 17.439453 29.519531 C 17.523478 29.579311 17.617624 29.609375 17.722656 29.609375 L 25.285156 29.609375 C 25.400694 29.609375 25.49484 29.579311 25.568359 29.519531 C 25.652385 29.459751 25.695314 29.383003 25.695312 29.289062 L 25.695312 28.019531 C 25.695313 27.925591 25.652385 27.848844 25.568359 27.789062 C 25.494837 27.720743 25.400692 27.6875 25.285156 27.6875 L 20.179688 27.6875 L 20.179688 26.021484 L 24.8125 26.021484 C 24.928039 26.021484 25.022184 25.991421 25.095703 25.931641 C 25.179728 25.863321 25.222656 25.783393 25.222656 25.689453 L 25.222656 24.523438 C 25.222656 24.429498 25.179728 24.352749 25.095703 24.292969 C 25.02218 24.224649 24.928035 24.189453 24.8125 24.189453 L 20.179688 24.189453 L 20.179688 22.5625 L 25.158203 22.5625 C 25.273741 22.5625 25.36984 22.532436 25.443359 22.472656 C 25.527385 22.412876 25.568359 22.336126 25.568359 22.242188 L 25.568359 20.974609 C 25.568359 20.880669 25.527385 20.803921 25.443359 20.744141 C 25.369837 20.675821 25.273738 20.640625 25.158203 20.640625 L 17.722656 20.640625 z M 27.845703 20.640625 C 27.730165 20.640625 27.636019 20.675821 27.5625 20.744141 C 27.488981 20.803921 27.453125 20.880669 27.453125 20.974609 L 27.453125 29.289062 C 27.453125 29.374462 27.488981 29.451211 27.5625 29.519531 C 27.646525 29.579311 27.740671 29.609375 27.845703 29.609375 L 30.003906 29.609375 C 30.119444 29.609375 30.215543 29.579311 30.289062 29.519531 C 30.373088 29.459751 30.414064 29.383003 30.414062 29.289062 L 30.414062 26.482422 L 31.927734 26.482422 L 33.660156 29.261719 C 33.786195 29.492299 34.002049 29.609375 34.306641 29.609375 L 36.527344 29.609375 C 36.621872 29.609375 36.700652 29.58249 36.763672 29.53125 C 36.826692 29.47147 36.857422 29.408163 36.857422 29.339844 C 36.857422 29.297143 36.84206 29.250459 36.810547 29.199219 L 34.683594 26.072266 C 35.282276 25.841686 35.749836 25.518069 36.085938 25.099609 C 36.432543 24.681149 36.605469 24.172019 36.605469 23.574219 C 36.605469 22.643359 36.211567 21.922557 35.423828 21.410156 C 34.646592 20.897757 33.566108 20.640625 32.179688 20.640625 L 27.845703 20.640625 z M 37.689453 20.640625 C 37.594928 20.640625 37.511027 20.670689 37.4375 20.730469 C 37.37448 20.781709 37.34375 20.841836 37.34375 20.910156 L 37.375 21.025391 L 40.558594 29.224609 C 40.600606 29.335629 40.672312 29.429 40.777344 29.505859 C 40.892878 29.57418 41.040196 29.609375 41.21875 29.609375 L 43.755859 29.609375 C 43.934414 29.609375 44.076609 29.57418 44.181641 29.505859 C 44.297171 29.429 44.37083 29.335629 44.402344 29.224609 L 47.599609 21.025391 C 47.610116 20.991231 47.615234 20.952856 47.615234 20.910156 C 47.615234 20.841836 47.584504 20.781709 47.521484 20.730469 C 47.458465 20.670689 47.379686 20.640625 47.285156 20.640625 L 45.220703 20.640625 C 45.063155 20.640625 44.933156 20.675821 44.828125 20.744141 C 44.7336 20.812461 44.670185 20.892388 44.638672 20.986328 L 42.480469 26.777344 L 40.337891 20.986328 C 40.306381 20.900928 40.237845 20.82418 40.132812 20.755859 C 40.038284 20.679 39.911454 20.640625 39.753906 20.640625 L 37.689453 20.640625 z M 49.447266 20.640625 C 49.342234 20.640625 49.248087 20.670689 49.164062 20.730469 C 49.090543 20.790249 49.054687 20.866997 49.054688 20.960938 L 49.054688 29.289062 C 49.054688 29.374462 49.090543 29.451211 49.164062 29.519531 C 49.248087 29.579311 49.342234 29.609375 49.447266 29.609375 L 51.701172 29.609375 C 51.81671 29.609375 51.910856 29.579311 51.984375 29.519531 C 52.057894 29.451211 52.09375 29.374462 52.09375 29.289062 L 52.09375 20.960938 C 52.09375 20.866997 52.057894 20.790249 51.984375 20.730469 C 51.910852 20.670689 51.816707 20.640625 51.701172 20.640625 L 49.447266 20.640625 z M 65.724609 20.640625 C 65.609071 20.640625 65.514926 20.675821 65.441406 20.744141 C 65.367887 20.803921 65.332031 20.880669 65.332031 20.974609 L 65.332031 29.289062 C 65.332031 29.374462 65.367887 29.451211 65.441406 29.519531 C 65.525432 29.579311 65.619577 29.609375 65.724609 29.609375 L 73.287109 29.609375 C 73.402647 29.609375 73.498746 29.579311 73.572266 29.519531 C 73.656291 29.459751 73.697266 29.383003 73.697266 29.289062 L 73.697266 28.019531 C 73.697266 27.925591 73.656291 27.848844 73.572266 27.789062 C 73.498743 27.720743 73.402644 27.6875 73.287109 27.6875 L 68.183594 27.6875 L 68.183594 26.021484 L 72.814453 26.021484 C 72.929991 26.021484 73.02609 25.991421 73.099609 25.931641 C 73.183635 25.863321 73.224609 25.783393 73.224609 25.689453 L 73.224609 24.523438 C 73.224609 24.429498 73.183635 24.352749 73.099609 24.292969 C 73.026087 24.224649 72.929988 24.189453 72.814453 24.189453 L 68.183594 24.189453 L 68.183594 22.5625 L 73.162109 22.5625 C 73.277647 22.5625 73.371797 22.532436 73.445312 22.472656 C 73.529338 22.412876 73.572266 22.336126 73.572266 22.242188 L 73.572266 20.974609 C 73.572266 20.880669 73.529338 20.803921 73.445312 20.744141 C 73.371792 20.675821 73.277644 20.640625 73.162109 20.640625 L 65.724609 20.640625 z M 30.414062 22.486328 L 32.164062 22.486328 C 32.615699 22.486328 32.956429 22.58483 33.1875 22.78125 C 33.429073 22.97767 33.548828 23.23798 33.548828 23.5625 C 33.548828 23.88702 33.429073 24.142197 33.1875 24.330078 C 32.956429 24.509417 32.615699 24.599609 32.164062 24.599609 L 30.414062 24.599609 L 30.414062 22.486328 z "
     id="rect1507" />
</svg>
