<?xml version="1.0" encoding="UTF-8" standalone="no"?>
<svg
   xmlns:dc="http://purl.org/dc/elements/1.1/"
   xmlns:cc="http://creativecommons.org/ns#"
   xmlns:rdf="http://www.w3.org/1999/02/22-rdf-syntax-ns#"
   xmlns:svg="http://www.w3.org/2000/svg"
   xmlns="http://www.w3.org/2000/svg"
   xmlns:sodipodi="http://sodipodi.sourceforge.net/DTD/sodipodi-0.dtd"
   xmlns:inkscape="http://www.inkscape.org/namespaces/inkscape"
   width="79.903"
   height="36"
   viewBox="0 0 79.902998 35.999999"
   version="1.1"
   id="svg28"
   sodipodi:docname="logo.svg"
   inkscape:export-filename="/home/filosof/fiork/logo.png"
   inkscape:export-xdpi="96"
   inkscape:export-ydpi="96"
   inkscape:version="0.92.3 (2405546, 2018-03-11)">
  <metadata
     id="metadata32">
    <rdf:RDF>
      <cc:Work
         rdf:about="">
        <dc:format>image/svg+xml</dc:format>
        <dc:type
           rdf:resource="http://purl.org/dc/dcmitype/StillImage" />
        <dc:title>miele_logo_red</dc:title>
      </cc:Work>
    </rdf:RDF>
  </metadata>
  <sodipodi:namedview
     pagecolor="#ffffff"
     bordercolor="#666666"
     borderopacity="1"
     objecttolerance="10"
     gridtolerance="10"
     guidetolerance="10"
     inkscape:pageopacity="0"
     inkscape:pageshadow="2"
     inkscape:window-width="1366"
     inkscape:window-height="715"
     id="namedview30"
     showgrid="false"
     inkscape:zoom="4.5976644"
     inkscape:cx="60.005692"
     inkscape:cy="16.181374"
     inkscape:window-x="-8"
     inkscape:window-y="22"
     inkscape:window-maximized="1"
     inkscape:current-layer="svg28" />
  <!-- Generator: Sketch 47 (45396) - http://www.bohemiancoding.com/sketch -->
  <title
     id="title2">miele_logo_red</title>
  <desc
     id="desc4">Created with Sketch.</desc>
  <defs
     id="defs6" />
  <path
     style="opacity:1;fill:#fc0204;fill-opacity:1;stroke-width:1.72495115;stroke-miterlimit:4;stroke-dasharray:none"
     d="M 0,0 H 79.903 V 36 H 0 Z"
     id="rect1507" />
  <path
     style="opacity:1;fill:#ffffff;fill-opacity:1;stroke-width:4.64784431;stroke-miterlimit:4;stroke-dasharray:none"
     d="M 2.4903564,16.859848 H 77.412643 v 16.53013 H 2.4903564 Z"
     id="rect1509" />
  <g
     aria-label="SERVICE"
     transform="scale(1.109,0.90171325)"
     style="font-style:normal;font-variant:normal;font-weight:bold;font-stretch:normal;font-size:14.2062912px;line-height:1.25;font-family:Rubik;-inkscape-font-specification:'Rubik, Bold';font-variant-ligatures:normal;font-variant-caps:normal;font-variant-numeric:normal;font-feature-settings:normal;text-align:start;letter-spacing:0px;word-spacing:0px;writing-mode:lr-tb;text-anchor:start;fill:#fc0204;fill-opacity:1;stroke:none;stroke-width:0.35515726"
     id="text1513">
    <path
       d="m 9.9286334,32.977791 q -1.3780102,0 -2.344038,-0.397777 Q 6.6185676,32.182238 6.1213474,31.528749 5.6241272,30.87526 5.5957146,30.10812 q 0,-0.127857 0.085238,-0.213095 0.099444,-0.08524 0.2273007,-0.08524 h 1.8894367 q 0.1704755,0 0.2699196,0.05682 0.1136503,0.05682 0.2415069,0.198888 0.1846818,0.340951 0.5682517,0.568252 0.3977761,0.213094 1.0512655,0.213094 0.7671396,0 1.1791226,-0.227301 0.411982,-0.241507 0.411982,-0.653489 0,-0.298332 -0.213094,-0.483014 Q 11.093549,29.284155 10.624742,29.142092 10.155934,28.985823 9.275144,28.801141 7.5561828,28.46019 6.7038053,27.764082 5.8514278,27.067973 5.8514278,25.775201 q 0,-0.88079 0.4830139,-1.562692 0.4972202,-0.696108 1.3922166,-1.079678 0.9092026,-0.38357 2.1025311,-0.38357 1.2501536,0 2.1593566,0.440395 0.923409,0.426189 1.406422,1.079678 0.497221,0.639283 0.525633,1.26436 0,0.127857 -0.08524,0.227301 -0.08524,0.08524 -0.213094,0.08524 h -1.988881 q -0.312538,0 -0.483014,-0.255713 -0.08524,-0.298332 -0.440395,-0.49722 -0.355157,-0.213094 -0.8807896,-0.213094 -0.5966643,0 -0.923409,0.213094 -0.3267447,0.213094 -0.3267447,0.625077 0,0.411982 0.4261888,0.653489 0.4261887,0.227301 1.5911045,0.468808 1.335391,0.241507 2.116737,0.61087 0.795553,0.355158 1.164916,0.937616 0.38357,0.568251 0.38357,1.449041 0,0.966028 -0.554045,1.676343 -0.554045,0.710314 -1.53428,1.093884 -0.980234,0.369364 -2.2445936,0.369364 z"
       style="font-style:normal;font-variant:normal;font-weight:bold;font-stretch:normal;font-size:14.2062912px;font-family:Rubik;-inkscape-font-specification:'Rubik, Bold';font-variant-ligatures:normal;font-variant-caps:normal;font-variant-numeric:normal;font-feature-settings:normal;text-align:start;writing-mode:lr-tb;text-anchor:start;fill:#fc0204;fill-opacity:1;stroke-width:0.35515726"
       id="path1542" />
    <path
       d="m 15.980735,32.835728 q -0.142063,0 -0.255713,-0.09944 -0.09944,-0.113651 -0.09944,-0.255714 v -9.219883 q 0,-0.156269 0.09944,-0.255713 0.09944,-0.11365 0.255713,-0.11365 h 6.70537 q 0.156269,0 0.255713,0.11365 0.11365,0.09944 0.11365,0.255713 v 1.406423 q 0,0.156269 -0.11365,0.255713 -0.09944,0.09944 -0.255713,0.09944 h -4.489188 v 1.804199 h 4.176649 q 0.15627,0 0.255714,0.11365 0.11365,0.09944 0.11365,0.255713 v 1.292773 q 0,0.156269 -0.11365,0.269919 -0.09944,0.09944 -0.255714,0.09944 h -4.176649 v 1.846818 h 4.602838 q 0.156269,0 0.255713,0.11365 0.113651,0.09944 0.113651,0.255714 v 1.406422 q 0,0.15627 -0.113651,0.255714 -0.09944,0.09944 -0.255713,0.09944 z"
       style="font-style:normal;font-variant:normal;font-weight:bold;font-stretch:normal;font-size:14.2062912px;font-family:Rubik;-inkscape-font-specification:'Rubik, Bold';font-variant-ligatures:normal;font-variant-caps:normal;font-variant-numeric:normal;font-feature-settings:normal;text-align:start;writing-mode:lr-tb;text-anchor:start;fill:#fc0204;fill-opacity:1;stroke-width:0.35515726"
       id="path1544" />
    <path
       d="m 25.109387,32.835728 q -0.142063,0 -0.255713,-0.09944 -0.09944,-0.113651 -0.09944,-0.255714 v -9.219883 q 0,-0.156269 0.09944,-0.255713 0.09944,-0.11365 0.255713,-0.11365 h 3.90673 q 1.87523,0 2.926496,0.852377 1.065472,0.852378 1.065472,2.400864 0,0.99444 -0.468808,1.690548 -0.454601,0.696108 -1.26436,1.079678 l 1.91785,3.466335 q 0.04262,0.08524 0.04262,0.15627 0,0.11365 -0.08524,0.213094 -0.08524,0.08524 -0.213095,0.08524 h -2.003087 q -0.411982,0 -0.582458,-0.38357 l -1.562692,-3.082765 h -1.363804 v 3.111177 q 0,0.15627 -0.11365,0.255714 -0.09944,0.09944 -0.255713,0.09944 z m 3.892524,-5.55466 q 0.61087,0 0.923409,-0.298332 0.326744,-0.312539 0.326744,-0.852378 0,-0.539839 -0.326744,-0.866584 -0.312539,-0.326744 -0.923409,-0.326744 h -1.576899 v 2.344038 z"
       style="font-style:normal;font-variant:normal;font-weight:bold;font-stretch:normal;font-size:14.2062912px;font-family:Rubik;-inkscape-font-specification:'Rubik, Bold';font-variant-ligatures:normal;font-variant-caps:normal;font-variant-numeric:normal;font-feature-settings:normal;text-align:start;writing-mode:lr-tb;text-anchor:start;fill:#fc0204;fill-opacity:1;stroke-width:0.35515726"
       id="path1546" />
    <path
       d="m 37.168085,32.835728 q -0.241507,0 -0.397776,-0.113651 -0.142063,-0.127856 -0.198888,-0.312538 l -2.869671,-9.092026 -0.02841,-0.127857 q 0,-0.11365 0.08524,-0.198888 0.09945,-0.09944 0.227301,-0.09944 H 35.8469 q 0.213095,0 0.340951,0.127856 0.142063,0.113651 0.184682,0.255714 l 1.932056,6.421243 1.946262,-6.421243 q 0.04262,-0.156269 0.170475,-0.26992 0.142063,-0.11365 0.355157,-0.11365 h 1.861024 q 0.127857,0 0.213095,0.09944 0.08524,0.08524 0.08524,0.198888 0,0.07103 -0.01421,0.127857 l -2.883877,9.092026 q -0.04262,0.184682 -0.198888,0.312538 -0.142063,0.113651 -0.38357,0.113651 z"
       style="font-style:normal;font-variant:normal;font-weight:bold;font-stretch:normal;font-size:14.2062912px;font-family:Rubik;-inkscape-font-specification:'Rubik, Bold';font-variant-ligatures:normal;font-variant-caps:normal;font-variant-numeric:normal;font-feature-settings:normal;text-align:start;writing-mode:lr-tb;text-anchor:start;fill:#fc0204;fill-opacity:1;stroke-width:0.35515726"
       id="path1548" />
    <path
       d="m 44.587544,32.835728 q -0.142063,0 -0.255713,-0.09944 -0.09944,-0.113651 -0.09944,-0.255714 v -9.234089 q 0,-0.156269 0.09944,-0.255713 0.11365,-0.09944 0.255713,-0.09944 h 2.0315 q 0.156269,0 0.255713,0.09944 0.09944,0.09944 0.09944,0.255713 v 9.234089 q 0,0.142063 -0.09944,0.255714 -0.09944,0.09944 -0.255713,0.09944 z"
       style="font-style:normal;font-variant:normal;font-weight:bold;font-stretch:normal;font-size:14.2062912px;font-family:Rubik;-inkscape-font-specification:'Rubik, Bold';font-variant-ligatures:normal;font-variant-caps:normal;font-variant-numeric:normal;font-feature-settings:normal;text-align:start;writing-mode:lr-tb;text-anchor:start;fill:#fc0204;fill-opacity:1;stroke-width:0.35515726"
       id="path1550" />
    <path
       d="m 53.013649,32.977791 q -2.0315,0 -3.196415,-0.980234 -1.15071,-0.980235 -1.221741,-2.869671 -0.01421,-0.38357 -0.01421,-1.250154 0,-0.88079 0.01421,-1.278566 0.07103,-1.846818 1.235947,-2.841258 1.179122,-1.008647 3.182209,-1.008647 1.26436,0 2.2588,0.411982 1.008647,0.411983 1.591105,1.193329 0.582458,0.781346 0.610871,1.846818 0,0.127856 -0.09944,0.213094 -0.08524,0.08524 -0.213094,0.08524 h -2.017293 q -0.198888,0 -0.298332,-0.07103 -0.08524,-0.08524 -0.15627,-0.298332 -0.198888,-0.696108 -0.61087,-0.966028 -0.397776,-0.284125 -1.065472,-0.284125 -1.605311,0 -1.662136,1.789992 -0.01421,0.38357 -0.01421,1.179122 0,0.795553 0.01421,1.207535 0.05683,1.789993 1.662136,1.789993 0.653489,0 1.065472,-0.284126 0.426189,-0.284126 0.61087,-0.966028 0.05683,-0.213094 0.15627,-0.284126 0.09944,-0.08524 0.298332,-0.08524 h 2.017293 q 0.127857,0 0.213094,0.08524 0.09944,0.08524 0.09944,0.213095 -0.02841,1.065472 -0.610871,1.846818 -0.582458,0.781346 -1.591105,1.193328 -0.99444,0.411983 -2.2588,0.411983 z"
       style="font-style:normal;font-variant:normal;font-weight:bold;font-stretch:normal;font-size:14.2062912px;font-family:Rubik;-inkscape-font-specification:'Rubik, Bold';font-variant-ligatures:normal;font-variant-caps:normal;font-variant-numeric:normal;font-feature-settings:normal;text-align:start;writing-mode:lr-tb;text-anchor:start;fill:#fc0204;fill-opacity:1;stroke-width:0.35515726"
       id="path1552" />
    <path
       d="m 59.26553,32.835728 q -0.142063,0 -0.255713,-0.09944 -0.09944,-0.113651 -0.09944,-0.255714 v -9.219883 q 0,-0.156269 0.09944,-0.255713 0.09944,-0.11365 0.255713,-0.11365 h 6.70537 q 0.156269,0 0.255713,0.11365 0.11365,0.09944 0.11365,0.255713 v 1.406423 q 0,0.156269 -0.11365,0.255713 -0.09944,0.09944 -0.255713,0.09944 h -4.489188 v 1.804199 h 4.176649 q 0.156269,0 0.255713,0.11365 0.113651,0.09944 0.113651,0.255713 v 1.292773 q 0,0.156269 -0.113651,0.269919 -0.09944,0.09944 -0.255713,0.09944 h -4.176649 v 1.846818 h 4.602838 q 0.156269,0 0.255713,0.11365 0.11365,0.09944 0.11365,0.255714 v 1.406422 q 0,0.15627 -0.11365,0.255714 -0.09944,0.09944 -0.255713,0.09944 z"
       style="font-style:normal;font-variant:normal;font-weight:bold;font-stretch:normal;font-size:14.2062912px;font-family:Rubik;-inkscape-font-specification:'Rubik, Bold';font-variant-ligatures:normal;font-variant-caps:normal;font-variant-numeric:normal;font-feature-settings:normal;text-align:start;writing-mode:lr-tb;text-anchor:start;fill:#fc0204;fill-opacity:1;stroke-width:0.35515726"
       id="path1554" />
  </g>
  <polygon
     id="Fill-24"
     points="53.721713,58.621455 53.721713,49.392473 60.241858,49.392473 60.241858,34.526192 39.359773,58.621455 17.352989,34.526192 17.352989,49.392473 23.872097,49.392473 23.872097,58.621455 0.52189344,58.621455 0.52189344,49.392473 6.9539281,49.392473 6.9539281,25.517475 0.52189344,25.517475 0.52189344,16.288493 33.229386,16.288493 48.904685,32.880004 63.461504,16.288493 95.969971,16.288493 95.969971,25.517475 89.450863,25.517475 89.450863,49.392473 95.969971,49.392473 95.969971,58.621455 "
     style="fill:#ffffff;fill-opacity:1;fill-rule:evenodd;stroke:none;stroke-width:1"
     transform="matrix(0.24975325,0,0,0.24975325,2.3600091,-1.0380292)" />
  <g
     aria-label="МИЕЛЕ"
     transform="scale(1.1083479,0.90224379)"
     style="font-style:normal;font-variant:normal;font-weight:bold;font-stretch:normal;font-size:11.43052101px;line-height:1.25;font-family:Rubik;-inkscape-font-specification:'Rubik, Bold';font-variant-ligatures:normal;font-variant-caps:normal;font-variant-numeric:normal;font-feature-settings:normal;text-align:start;letter-spacing:0px;word-spacing:0px;writing-mode:lr-tb;text-anchor:start;fill:#ffffff;fill-opacity:1;stroke:none;stroke-width:0.28576306"
     id="text1505">
    <path
       d="m 27.906161,13.493631 q -0.125736,0 -0.21718,-0.08001 -0.08001,-0.08001 -0.08001,-0.20575 V 5.7894602 q 0,-0.1257357 0.08001,-0.2057494 0.09144,-0.091444 0.21718,-0.091444 h 1.291649 q 0.285763,0 0.411498,0.2514714 l 1.96605,3.5206005 1.97748,-3.5206005 q 0.125736,-0.2514714 0.411499,-0.2514714 h 1.291649 q 0.125735,0 0.205749,0.091444 0.09144,0.080014 0.09144,0.2057494 v 7.4184078 q 0,0.125736 -0.09144,0.20575 -0.08001,0.08001 -0.205749,0.08001 H 33.80431 q -0.114306,0 -0.20575,-0.08001 -0.08001,-0.09144 -0.08001,-0.20575 V 9.0471587 L 32.28405,11.310402 q -0.148597,0.262902 -0.400068,0.262902 h -0.617248 q -0.228611,0 -0.400068,-0.262902 L 29.6436,9.0471587 v 4.1607093 q 0,0.125736 -0.09144,0.20575 -0.08001,0.08001 -0.20575,0.08001 z"
       style="fill:#ffffff;fill-opacity:1;stroke-width:0.28576306"
       id="path1531" />
    <path
       d="m 37.382955,13.493631 q -0.125736,0 -0.205749,-0.08001 -0.08001,-0.09144 -0.08001,-0.21718 V 5.7894602 q 0,-0.1257357 0.08001,-0.2057494 0.09144,-0.091444 0.21718,-0.091444 h 1.554551 q 0.125735,0 0.205749,0.091444 0.09144,0.080014 0.09144,0.2057494 V 10.258794 L 42.400954,5.7094466 Q 42.53812,5.4922667 42.789592,5.4922667 h 1.405954 q 0.125735,0 0.205749,0.091444 0.08001,0.080014 0.08001,0.2057494 v 7.4184078 q 0,0.114306 -0.08001,0.20575 -0.08001,0.08001 -0.205749,0.08001 h -1.565982 q -0.125735,0 -0.21718,-0.08001 -0.08001,-0.08001 -0.08001,-0.20575 V 8.9099924 l -3.154824,4.3664586 q -0.06858,0.102875 -0.160027,0.160028 -0.08001,0.05715 -0.228611,0.05715 z"
       style="fill:#ffffff;fill-opacity:1;stroke-width:0.28576306"
       id="path1533" />
    <path
       d="m 46.31305,13.493631 q -0.114305,0 -0.205749,-0.08001 -0.08001,-0.09144 -0.08001,-0.20575 V 5.7894602 q 0,-0.1257357 0.08001,-0.2057494 0.08001,-0.091444 0.205749,-0.091444 h 5.395206 q 0.125736,0 0.205749,0.091444 0.09144,0.080014 0.09144,0.2057494 v 1.1316216 q 0,0.1257357 -0.09144,0.2057494 -0.08001,0.080014 -0.205749,0.080014 H 48.096211 V 8.658521 h 3.360573 q 0.125736,0 0.20575,0.091444 0.09144,0.080014 0.09144,0.2057494 v 1.0401774 q 0,0.1257361 -0.09144,0.2171801 -0.08001,0.08001 -0.20575,0.08001 h -3.360573 v 1.485968 H 51.7997 q 0.125736,0 0.205749,0.09144 0.09145,0.08001 0.09145,0.20575 v 1.131621 q 0,0.125736 -0.09145,0.20575 -0.08001,0.08001 -0.205749,0.08001 z"
       style="fill:#ffffff;fill-opacity:1;stroke-width:0.28576306"
       id="path1535" />
    <path
       d="m 58.744635,13.493631 q -0.114305,0 -0.20575,-0.08001 -0.08001,-0.09144 -0.08001,-0.20575 V 7.4011637 h -2.057494 v 0.9601637 q 0,1.9431886 -0.251471,3.0176576 -0.251472,1.074469 -0.937303,1.588842 -0.674401,0.502943 -1.97748,0.525804 -0.114305,0 -0.20575,-0.09144 -0.09144,-0.09144 -0.09144,-0.205749 V 11.92765 q 0,-0.240041 0.285763,-0.297194 0.605818,-0.102874 0.857289,-1.005885 0.251472,-0.9030116 0.251472,-2.5375761 V 5.7780297 q 0,-0.1257358 0.08001,-0.2057494 0.09145,-0.080014 0.21718,-0.080014 h 5.680969 q 0.125736,0 0.20575,0.091444 0.09144,0.080014 0.09144,0.2057494 v 7.4184078 q 0,0.125736 -0.09144,0.20575 -0.08001,0.08001 -0.20575,0.08001 z"
       style="fill:#ffffff;fill-opacity:1;stroke-width:0.28576306"
       id="path1537" />
    <path
       d="m 62.454198,13.493631 q -0.114306,0 -0.20575,-0.08001 -0.08001,-0.09144 -0.08001,-0.20575 V 5.7894602 q 0,-0.1257357 0.08001,-0.2057494 0.08001,-0.091444 0.20575,-0.091444 h 5.395205 q 0.125736,0 0.20575,0.091444 0.09144,0.080014 0.09144,0.2057494 v 1.1316216 q 0,0.1257357 -0.09144,0.2057494 -0.08001,0.080014 -0.20575,0.080014 H 64.237359 V 8.658521 h 3.360573 q 0.125736,0 0.205749,0.091444 0.09145,0.080014 0.09145,0.2057494 v 1.0401774 q 0,0.1257361 -0.09145,0.2171801 -0.08001,0.08001 -0.205749,0.08001 h -3.360573 v 1.485968 h 3.703489 q 0.125735,0 0.205749,0.09144 0.09144,0.08001 0.09144,0.20575 v 1.131621 q 0,0.125736 -0.09144,0.20575 -0.08001,0.08001 -0.205749,0.08001 z"
       style="fill:#ffffff;fill-opacity:1;stroke-width:0.28576306"
       id="path1539" />
  </g>
</svg>
